<svg xmlns="http://www.w3.org/2000/svg" xmlns:xlink="http://www.w3.org/1999/xlink" width="1080" zoomAndPan="magnify" viewBox="0 0 810 809.999993" height="1080" preserveAspectRatio="xMidYMid meet" version="1.0"><defs><g/><clipPath id="f31bc53598"><path d="M 24.070312 24.070312 L 786.070312 24.070312 L 786.070312 786.070312 L 24.070312 786.070312 Z M 24.070312 24.070312 " clip-rule="nonzero"/></clipPath><clipPath id="61c30f9646"><path d="M 131 489 L 679 489 L 679 786.070312 L 131 786.070312 Z M 131 489 " clip-rule="nonzero"/></clipPath></defs><g clip-path="url(#f31bc53598)"><path fill="#ff9561" d="M 786.128906 405.101562 C 786.128906 411.335938 785.976562 417.566406 785.671875 423.796875 C 785.363281 430.023438 784.90625 436.242188 784.292969 442.445312 C 783.683594 448.652344 782.917969 454.839844 782.003906 461.007812 C 781.089844 467.175781 780.023438 473.320312 778.808594 479.433594 C 777.589844 485.550781 776.226562 491.632812 774.710938 497.683594 C 773.195312 503.730469 771.53125 509.738281 769.722656 515.707031 C 767.910156 521.675781 765.957031 527.59375 763.855469 533.464844 C 761.753906 539.335938 759.511719 545.152344 757.125 550.914062 C 754.738281 556.675781 752.210938 562.375 749.546875 568.011719 C 746.878906 573.648438 744.078125 579.214844 741.136719 584.714844 C 738.199219 590.214844 735.125 595.640625 731.917969 600.988281 C 728.714844 606.335938 725.378906 611.601562 721.914062 616.789062 C 718.449219 621.972656 714.859375 627.070312 711.144531 632.078125 C 707.429688 637.085938 703.59375 642 699.640625 646.820312 C 695.683594 651.640625 691.613281 656.363281 687.421875 660.984375 C 683.234375 665.605469 678.9375 670.117188 674.527344 674.527344 C 670.117188 678.9375 665.605469 683.234375 660.984375 687.421875 C 656.363281 691.613281 651.640625 695.683594 646.820312 699.640625 C 642 703.59375 637.085938 707.429688 632.078125 711.144531 C 627.070312 714.859375 621.972656 718.449219 616.789062 721.914062 C 611.601562 725.378906 606.335938 728.714844 600.988281 731.917969 C 595.640625 735.125 590.214844 738.199219 584.714844 741.136719 C 579.214844 744.078125 573.648438 746.878906 568.011719 749.546875 C 562.375 752.210938 556.675781 754.738281 550.914062 757.125 C 545.152344 759.511719 539.335938 761.753906 533.464844 763.855469 C 527.59375 765.957031 521.675781 767.910156 515.707031 769.722656 C 509.738281 771.53125 503.730469 773.195312 497.683594 774.710938 C 491.632812 776.226562 485.550781 777.589844 479.433594 778.808594 C 473.320312 780.023438 467.175781 781.089844 461.007812 782.003906 C 454.839844 782.917969 448.652344 783.683594 442.445312 784.292969 C 436.242188 784.90625 430.023438 785.363281 423.796875 785.671875 C 417.566406 785.976562 411.335938 786.128906 405.101562 786.128906 C 398.863281 786.128906 392.632812 785.976562 386.402344 785.671875 C 380.175781 785.363281 373.957031 784.90625 367.753906 784.292969 C 361.546875 783.683594 355.359375 782.917969 349.191406 782.003906 C 343.023438 781.089844 336.878906 780.023438 330.765625 778.808594 C 324.648438 777.589844 318.566406 776.226562 312.515625 774.710938 C 306.46875 773.195312 300.460938 771.53125 294.492188 769.722656 C 288.527344 767.910156 282.605469 765.957031 276.734375 763.855469 C 270.863281 761.753906 265.046875 759.511719 259.285156 757.125 C 253.523438 754.738281 247.824219 752.210938 242.1875 749.546875 C 236.550781 746.878906 230.984375 744.078125 225.484375 741.136719 C 219.984375 738.199219 214.558594 735.125 209.210938 731.917969 C 203.863281 728.714844 198.597656 725.378906 193.410156 721.914062 C 188.226562 718.449219 183.128906 714.859375 178.121094 711.144531 C 173.113281 707.429688 168.199219 703.59375 163.378906 699.640625 C 158.558594 695.683594 153.835938 691.613281 149.214844 687.421875 C 144.597656 683.234375 140.082031 678.9375 135.671875 674.527344 C 131.261719 670.117188 126.964844 665.605469 122.777344 660.984375 C 118.589844 656.363281 114.515625 651.640625 110.558594 646.820312 C 106.605469 642 102.769531 637.085938 99.054688 632.078125 C 95.339844 627.070312 91.75 621.972656 88.285156 616.789062 C 84.820312 611.601562 81.484375 606.335938 78.28125 600.988281 C 75.074219 595.640625 72 590.214844 69.0625 584.714844 C 66.121094 579.214844 63.320312 573.648438 60.652344 568.011719 C 57.988281 562.375 55.460938 556.675781 53.074219 550.914062 C 50.6875 545.152344 48.445312 539.335938 46.34375 533.464844 C 44.242188 527.59375 42.289062 521.675781 40.476562 515.707031 C 38.667969 509.738281 37.003906 503.730469 35.488281 497.683594 C 33.972656 491.632812 32.609375 485.550781 31.390625 479.433594 C 30.175781 473.320312 29.109375 467.175781 28.195312 461.007812 C 27.28125 454.839844 26.515625 448.652344 25.90625 442.445312 C 25.292969 436.242188 24.835938 430.023438 24.53125 423.796875 C 24.222656 417.566406 24.070312 411.335938 24.070312 405.101562 C 24.070312 398.863281 24.222656 392.632812 24.53125 386.402344 C 24.835938 380.175781 25.292969 373.957031 25.90625 367.753906 C 26.515625 361.546875 27.28125 355.359375 28.195312 349.191406 C 29.109375 343.023438 30.175781 336.878906 31.390625 330.765625 C 32.609375 324.648438 33.972656 318.566406 35.488281 312.515625 C 37.003906 306.46875 38.667969 300.460938 40.476562 294.492188 C 42.289062 288.527344 44.242188 282.605469 46.34375 276.734375 C 48.445312 270.863281 50.6875 265.046875 53.074219 259.285156 C 55.460938 253.523438 57.988281 247.824219 60.652344 242.1875 C 63.320312 236.550781 66.121094 230.984375 69.0625 225.484375 C 72 219.984375 75.074219 214.558594 78.28125 209.210938 C 81.484375 203.863281 84.820312 198.597656 88.285156 193.410156 C 91.75 188.226562 95.339844 183.128906 99.054688 178.121094 C 102.769531 173.113281 106.605469 168.199219 110.558594 163.378906 C 114.515625 158.558594 118.589844 153.835938 122.777344 149.214844 C 126.964844 144.597656 131.261719 140.082031 135.671875 135.671875 C 140.082031 131.261719 144.597656 126.964844 149.214844 122.777344 C 153.835938 118.589844 158.558594 114.515625 163.378906 110.558594 C 168.199219 106.605469 173.113281 102.769531 178.121094 99.054688 C 183.128906 95.339844 188.226562 91.75 193.410156 88.285156 C 198.597656 84.820312 203.863281 81.484375 209.210938 78.28125 C 214.558594 75.074219 219.984375 72 225.484375 69.0625 C 230.984375 66.121094 236.550781 63.320312 242.1875 60.652344 C 247.824219 57.988281 253.523438 55.460938 259.285156 53.074219 C 265.046875 50.6875 270.863281 48.445312 276.734375 46.34375 C 282.605469 44.242188 288.527344 42.289062 294.492188 40.476562 C 300.460938 38.667969 306.46875 37.003906 312.515625 35.488281 C 318.566406 33.972656 324.648438 32.609375 330.765625 31.390625 C 336.878906 30.175781 343.023438 29.109375 349.191406 28.195312 C 355.359375 27.28125 361.546875 26.515625 367.753906 25.90625 C 373.957031 25.292969 380.175781 24.835938 386.402344 24.53125 C 392.632812 24.222656 398.863281 24.070312 405.101562 24.070312 C 411.335938 24.070312 417.566406 24.222656 423.796875 24.53125 C 430.023438 24.835938 436.242188 25.292969 442.445312 25.90625 C 448.652344 26.515625 454.839844 27.28125 461.007812 28.195312 C 467.175781 29.109375 473.320312 30.175781 479.433594 31.390625 C 485.550781 32.609375 491.632812 33.972656 497.683594 35.488281 C 503.730469 37.003906 509.738281 38.667969 515.707031 40.476562 C 521.675781 42.289062 527.59375 44.242188 533.464844 46.34375 C 539.335938 48.445312 545.152344 50.6875 550.914062 53.074219 C 556.675781 55.460938 562.375 57.988281 568.011719 60.652344 C 573.648438 63.320312 579.214844 66.121094 584.714844 69.0625 C 590.214844 72 595.640625 75.074219 600.988281 78.28125 C 606.335938 81.484375 611.601562 84.820312 616.789062 88.285156 C 621.972656 91.75 627.070312 95.339844 632.078125 99.054688 C 637.085938 102.769531 642 106.605469 646.820312 110.558594 C 651.640625 114.515625 656.363281 118.589844 660.984375 122.777344 C 665.605469 126.964844 670.117188 131.261719 674.527344 135.671875 C 678.9375 140.082031 683.234375 144.597656 687.421875 149.214844 C 691.613281 153.835938 695.683594 158.558594 699.640625 163.378906 C 703.59375 168.199219 707.429688 173.113281 711.144531 178.121094 C 714.859375 183.128906 718.449219 188.226562 721.914062 193.410156 C 725.378906 198.597656 728.714844 203.863281 731.917969 209.210938 C 735.125 214.558594 738.199219 219.984375 741.136719 225.484375 C 744.078125 230.984375 746.878906 236.550781 749.546875 242.1875 C 752.210938 247.824219 754.738281 253.523438 757.125 259.285156 C 759.511719 265.046875 761.753906 270.863281 763.855469 276.734375 C 765.957031 282.605469 767.910156 288.527344 769.722656 294.492188 C 771.53125 300.460938 773.195312 306.46875 774.710938 312.515625 C 776.226562 318.566406 777.589844 324.648438 778.808594 330.765625 C 780.023438 336.878906 781.089844 343.023438 782.003906 349.191406 C 782.917969 355.359375 783.683594 361.546875 784.292969 367.753906 C 784.90625 373.957031 785.363281 380.175781 785.671875 386.402344 C 785.976562 392.632812 786.128906 398.863281 786.128906 405.101562 Z M 786.128906 405.101562 " fill-opacity="1" fill-rule="nonzero"/></g><path fill="#002c5c" d="M 502.574219 191.582031 C 483.246094 117.371094 262.761719 87.984375 233.414062 264.816406 C 204.066406 441.644531 100.261719 589.125 334.347656 624.917969 C 568.4375 660.710938 618.546875 574.09375 604.226562 460.269531 C 589.910156 346.449219 563.421875 184.898438 502.574219 191.582031 Z M 502.574219 191.582031 " fill-opacity="1" fill-rule="nonzero"/><g clip-path="url(#61c30f9646)"><path fill="#00669b" d="M 678.652344 670.570312 C 674.222656 675.132812 669.683594 679.582031 665.035156 683.914062 C 660.382812 688.25 655.628906 692.464844 650.765625 696.5625 C 645.902344 700.65625 640.941406 704.628906 635.882812 708.476562 C 630.824219 712.328125 625.667969 716.046875 620.421875 719.636719 C 615.175781 723.226562 609.84375 726.683594 604.425781 730.007812 C 599.003906 733.332031 593.507812 736.515625 587.929688 739.566406 C 582.347656 742.613281 576.699219 745.519531 570.972656 748.289062 C 565.25 751.054688 559.460938 753.675781 553.605469 756.152344 C 547.75 758.625 541.835938 760.957031 535.863281 763.136719 C 529.894531 765.316406 523.871094 767.347656 517.796875 769.226562 C 511.722656 771.105469 505.609375 772.832031 499.449219 774.402344 C 493.289062 775.976562 487.09375 777.394531 480.863281 778.660156 C 474.632812 779.921875 468.375 781.027344 462.089844 781.980469 C 455.804688 782.929688 449.496094 783.722656 443.171875 784.355469 C 436.847656 784.992188 430.507812 785.46875 424.160156 785.785156 C 417.808594 786.105469 411.457031 786.261719 405.101562 786.261719 C 398.742188 786.261719 392.390625 786.105469 386.039062 785.785156 C 379.691406 785.46875 373.351562 784.992188 367.027344 784.355469 C 360.703125 783.722656 354.398438 782.929688 348.109375 781.980469 C 341.824219 781.027344 335.566406 779.921875 329.335938 778.660156 C 323.105469 777.394531 316.910156 775.976562 310.75 774.402344 C 304.589844 772.832031 298.476562 771.105469 292.402344 769.226562 C 286.328125 767.347656 280.304688 765.316406 274.335938 763.136719 C 268.363281 760.957031 262.449219 758.625 256.59375 756.152344 C 250.738281 753.675781 244.949219 751.054688 239.226562 748.289062 C 233.5 745.519531 227.851562 742.613281 222.273438 739.566406 C 216.691406 736.515625 211.195312 733.332031 205.773438 730.007812 C 200.355469 726.683594 195.023438 723.226562 189.777344 719.636719 C 184.53125 716.046875 179.378906 712.328125 174.316406 708.476562 C 169.257812 704.628906 164.296875 700.65625 159.433594 696.5625 C 154.574219 692.464844 149.816406 688.25 145.164062 683.914062 C 140.515625 679.582031 135.976562 675.132812 131.546875 670.570312 C 132.957031 667.234375 134.429688 663.925781 135.960938 660.640625 C 137.492188 657.359375 139.082031 654.101562 140.730469 650.878906 C 142.382812 647.652344 144.089844 644.460938 145.859375 641.296875 C 147.625 638.132812 149.449219 635.003906 151.332031 631.910156 C 153.214844 628.8125 155.152344 625.753906 157.144531 622.730469 C 159.140625 619.703125 161.1875 616.714844 163.292969 613.765625 C 165.394531 610.816406 167.550781 607.90625 169.761719 605.035156 C 171.96875 602.164062 174.230469 599.335938 176.542969 596.546875 C 178.859375 593.757812 181.222656 591.011719 183.632812 588.3125 C 186.046875 585.609375 188.511719 582.953125 191.019531 580.34375 C 193.53125 577.730469 196.089844 575.164062 198.695312 572.648438 C 201.300781 570.128906 203.949219 567.660156 206.644531 565.238281 C 209.339844 562.816406 212.078125 560.445312 214.859375 558.125 C 217.640625 555.804688 220.464844 553.535156 223.332031 551.320312 C 226.195312 549.101562 229.101562 546.9375 232.042969 544.828125 C 234.988281 542.714844 237.96875 540.660156 240.988281 538.65625 C 244.007812 536.65625 247.0625 534.707031 250.152344 532.816406 C 253.246094 530.929688 256.367188 529.09375 259.527344 527.320312 C 262.683594 525.542969 265.875 523.824219 269.09375 522.167969 C 272.316406 520.507812 275.566406 518.90625 278.84375 517.367188 C 282.121094 515.828125 285.429688 514.347656 288.761719 512.929688 C 292.09375 511.507812 295.453125 510.152344 298.835938 508.855469 C 302.21875 507.558594 305.625 506.324219 309.054688 505.152344 C 312.480469 503.980469 315.929688 502.871094 319.398438 501.828125 C 322.867188 500.78125 326.355469 499.800781 329.859375 498.882812 C 333.363281 497.964844 336.882812 497.109375 340.417969 496.320312 C 343.953125 495.53125 347.503906 494.808594 351.066406 494.148438 C 354.628906 493.492188 358.203125 492.894531 361.785156 492.367188 C 365.371094 491.839844 368.960938 491.378906 372.5625 490.980469 C 376.164062 490.582031 379.773438 490.253906 383.382812 489.988281 C 386.996094 489.722656 390.613281 489.523438 394.234375 489.390625 C 397.855469 489.257812 401.476562 489.191406 405.101562 489.191406 C 408.722656 489.191406 412.34375 489.257812 415.964844 489.390625 C 419.585938 489.523438 423.203125 489.722656 426.816406 489.988281 C 430.429688 490.253906 434.035156 490.582031 437.636719 490.980469 C 441.238281 491.378906 444.828125 491.839844 448.414062 492.367188 C 451.996094 492.898438 455.570312 493.492188 459.132812 494.148438 C 462.695312 494.808594 466.246094 495.53125 469.78125 496.320312 C 473.316406 497.109375 476.835938 497.964844 480.339844 498.882812 C 483.847656 499.800781 487.332031 500.78125 490.800781 501.828125 C 494.269531 502.871094 497.71875 503.980469 501.148438 505.152344 C 504.574219 506.324219 507.980469 507.558594 511.363281 508.855469 C 514.746094 510.152344 518.105469 511.507812 521.4375 512.929688 C 524.769531 514.347656 528.078125 515.828125 531.355469 517.367188 C 534.636719 518.90625 537.886719 520.507812 541.105469 522.167969 C 544.324219 523.824219 547.515625 525.542969 550.671875 527.320312 C 553.832031 529.09375 556.953125 530.929688 560.046875 532.816406 C 563.136719 534.707031 566.191406 536.65625 569.210938 538.65625 C 572.230469 540.660156 575.210938 542.714844 578.15625 544.828125 C 581.101562 546.9375 584.003906 549.101562 586.871094 551.320312 C 589.734375 553.535156 592.558594 555.804688 595.339844 558.125 C 598.121094 560.445312 600.859375 562.816406 603.554688 565.238281 C 606.25 567.660156 608.898438 570.128906 611.503906 572.648438 C 614.109375 575.164062 616.667969 577.730469 619.179688 580.34375 C 621.6875 582.953125 624.152344 585.609375 626.566406 588.3125 C 628.980469 591.011719 631.34375 593.757812 633.65625 596.546875 C 635.96875 599.335938 638.230469 602.164062 640.4375 605.035156 C 642.648438 607.90625 644.804688 610.816406 646.910156 613.765625 C 649.011719 616.714844 651.058594 619.703125 653.054688 622.730469 C 655.046875 625.753906 656.984375 628.8125 658.867188 631.910156 C 660.75 635.003906 662.574219 638.132812 664.339844 641.296875 C 666.109375 644.460938 667.816406 647.652344 669.46875 650.878906 C 671.117188 654.101562 672.707031 657.359375 674.238281 660.640625 C 675.769531 663.925781 677.242188 667.234375 678.652344 670.570312 Z M 678.652344 670.570312 " fill-opacity="1" fill-rule="nonzero"/></g><path fill="#ff9561" d="M 404.949219 405.101562 C 406.707031 405.101562 408.460938 405.1875 410.210938 405.359375 C 411.957031 405.53125 413.695312 405.789062 415.417969 406.128906 C 417.140625 406.472656 418.84375 406.898438 420.523438 407.410156 C 422.207031 407.921875 423.859375 408.511719 425.480469 409.183594 C 427.105469 409.855469 428.691406 410.605469 430.242188 411.433594 C 431.792969 412.261719 433.296875 413.164062 434.757812 414.140625 C 436.21875 415.117188 437.628906 416.164062 438.988281 417.277344 C 440.34375 418.394531 441.644531 419.570312 442.886719 420.8125 C 444.128906 422.054688 445.308594 423.355469 446.421875 424.714844 C 447.539062 426.074219 448.582031 427.484375 449.558594 428.945312 C 450.535156 430.40625 451.4375 431.910156 452.265625 433.460938 C 453.09375 435.007812 453.84375 436.597656 454.519531 438.21875 C 455.191406 439.84375 455.78125 441.496094 456.292969 443.175781 C 456.800781 444.859375 457.226562 446.5625 457.570312 448.285156 C 457.914062 450.007812 458.171875 451.742188 458.34375 453.492188 C 458.515625 455.242188 458.601562 456.992188 458.601562 458.75 L 458.601562 506.074219 C 458.601562 507.832031 458.515625 509.582031 458.34375 511.332031 C 458.171875 513.082031 457.914062 514.816406 457.570312 516.539062 C 457.226562 518.261719 456.800781 519.964844 456.292969 521.648438 C 455.78125 523.328125 455.191406 524.980469 454.519531 526.605469 C 453.84375 528.226562 453.09375 529.816406 452.265625 531.363281 C 451.4375 532.914062 450.535156 534.417969 449.558594 535.878906 C 448.582031 537.339844 447.539062 538.75 446.421875 540.109375 C 445.308594 541.46875 444.128906 542.769531 442.886719 544.011719 C 441.644531 545.253906 440.34375 546.429688 438.988281 547.546875 C 437.628906 548.660156 436.21875 549.707031 434.757812 550.683594 C 433.296875 551.660156 431.792969 552.5625 430.242188 553.390625 C 428.691406 554.21875 427.105469 554.96875 425.480469 555.640625 C 423.859375 556.3125 422.207031 556.902344 420.523438 557.414062 C 418.84375 557.925781 417.140625 558.351562 415.417969 558.695312 C 413.695312 559.035156 411.957031 559.292969 410.210938 559.464844 C 408.460938 559.636719 406.707031 559.722656 404.949219 559.722656 C 403.191406 559.722656 401.441406 559.636719 399.691406 559.464844 C 397.941406 559.292969 396.207031 559.035156 394.484375 558.695312 C 392.761719 558.351562 391.058594 557.925781 389.375 557.414062 C 387.695312 556.902344 386.042969 556.3125 384.417969 555.640625 C 382.796875 554.96875 381.210938 554.21875 379.660156 553.390625 C 378.109375 552.5625 376.605469 551.660156 375.144531 550.683594 C 373.683594 549.707031 372.273438 548.660156 370.914062 547.546875 C 369.554688 546.429688 368.253906 545.253906 367.011719 544.011719 C 365.769531 542.769531 364.59375 541.46875 363.476562 540.109375 C 362.363281 538.75 361.316406 537.339844 360.339844 535.878906 C 359.363281 534.417969 358.460938 532.914062 357.632812 531.363281 C 356.804688 529.816406 356.054688 528.226562 355.382812 526.605469 C 354.710938 524.980469 354.121094 523.328125 353.609375 521.648438 C 353.097656 519.964844 352.671875 518.261719 352.328125 516.539062 C 351.988281 514.816406 351.730469 513.082031 351.558594 511.332031 C 351.386719 509.582031 351.300781 507.832031 351.300781 506.074219 L 351.300781 458.75 C 351.300781 456.992188 351.386719 455.242188 351.558594 453.492188 C 351.730469 451.742188 351.988281 450.007812 352.328125 448.285156 C 352.671875 446.5625 353.097656 444.859375 353.609375 443.175781 C 354.121094 441.496094 354.710938 439.84375 355.382812 438.21875 C 356.054688 436.597656 356.804688 435.007812 357.632812 433.460938 C 358.460938 431.910156 359.363281 430.40625 360.339844 428.945312 C 361.316406 427.484375 362.363281 426.074219 363.476562 424.714844 C 364.59375 423.355469 365.769531 422.054688 367.011719 420.8125 C 368.253906 419.570312 369.554688 418.394531 370.914062 417.277344 C 372.273438 416.164062 373.683594 415.117188 375.144531 414.140625 C 376.605469 413.164062 378.109375 412.261719 379.660156 411.433594 C 381.210938 410.605469 382.796875 409.855469 384.417969 409.183594 C 386.042969 408.511719 387.695312 407.921875 389.375 407.410156 C 391.058594 406.898438 392.761719 406.472656 394.484375 406.128906 C 396.207031 405.789062 397.941406 405.53125 399.691406 405.359375 C 401.441406 405.1875 403.191406 405.101562 404.949219 405.101562 Z M 404.949219 405.101562 " fill-opacity="1" fill-rule="nonzero"/><path fill="#ff9561" d="M 307.160156 371.320312 C 307.160156 372.429688 307.105469 373.535156 306.996094 374.636719 C 306.890625 375.738281 306.726562 376.835938 306.511719 377.921875 C 306.292969 379.007812 306.023438 380.082031 305.703125 381.140625 C 305.382812 382.203125 305.007812 383.242188 304.585938 384.269531 C 304.160156 385.292969 303.6875 386.292969 303.164062 387.269531 C 302.644531 388.246094 302.074219 389.195312 301.457031 390.117188 C 300.84375 391.039062 300.183594 391.925781 299.480469 392.785156 C 298.777344 393.640625 298.035156 394.460938 297.25 395.246094 C 296.46875 396.027344 295.648438 396.769531 294.789062 397.472656 C 293.933594 398.175781 293.046875 398.835938 292.125 399.453125 C 291.203125 400.066406 290.253906 400.636719 289.277344 401.160156 C 288.296875 401.679688 287.296875 402.15625 286.273438 402.578125 C 285.25 403.003906 284.207031 403.375 283.148438 403.695312 C 282.089844 404.019531 281.015625 404.289062 279.925781 404.503906 C 278.839844 404.71875 277.746094 404.882812 276.644531 404.992188 C 275.539062 405.097656 274.433594 405.152344 273.328125 405.152344 C 272.21875 405.152344 271.113281 405.097656 270.011719 404.992188 C 268.90625 404.882812 267.8125 404.71875 266.726562 404.503906 C 265.640625 404.289062 264.566406 404.019531 263.503906 403.695312 C 262.445312 403.375 261.402344 403.003906 260.378906 402.578125 C 259.355469 402.15625 258.355469 401.679688 257.378906 401.160156 C 256.402344 400.636719 255.453125 400.066406 254.53125 399.453125 C 253.609375 398.835938 252.71875 398.175781 251.863281 397.472656 C 251.007812 396.769531 250.1875 396.027344 249.402344 395.246094 C 248.621094 394.460938 247.875 393.640625 247.171875 392.785156 C 246.46875 391.925781 245.8125 391.039062 245.195312 390.117188 C 244.578125 389.195312 244.011719 388.246094 243.488281 387.269531 C 242.964844 386.292969 242.492188 385.292969 242.070312 384.269531 C 241.644531 383.242188 241.273438 382.203125 240.949219 381.140625 C 240.628906 380.082031 240.359375 379.007812 240.144531 377.921875 C 239.925781 376.835938 239.765625 375.738281 239.65625 374.636719 C 239.546875 373.535156 239.492188 372.429688 239.492188 371.320312 C 239.492188 370.210938 239.546875 369.105469 239.65625 368.003906 C 239.765625 366.902344 239.925781 365.804688 240.144531 364.71875 C 240.359375 363.632812 240.628906 362.558594 240.949219 361.5 C 241.273438 360.4375 241.644531 359.398438 242.070312 358.371094 C 242.492188 357.347656 242.964844 356.347656 243.488281 355.371094 C 244.011719 354.394531 244.578125 353.445312 245.195312 352.523438 C 245.8125 351.601562 246.46875 350.714844 247.171875 349.855469 C 247.875 349 248.621094 348.179688 249.402344 347.394531 C 250.1875 346.613281 251.007812 345.871094 251.863281 345.167969 C 252.71875 344.464844 253.609375 343.804688 254.53125 343.1875 C 255.453125 342.574219 256.402344 342.003906 257.378906 341.480469 C 258.355469 340.960938 259.355469 340.484375 260.378906 340.0625 C 261.402344 339.636719 262.445312 339.265625 263.503906 338.945312 C 264.566406 338.621094 265.640625 338.351562 266.726562 338.136719 C 267.8125 337.921875 268.90625 337.757812 270.011719 337.648438 C 271.113281 337.542969 272.21875 337.488281 273.328125 337.488281 C 274.433594 337.488281 275.539062 337.542969 276.644531 337.648438 C 277.746094 337.757812 278.839844 337.921875 279.925781 338.136719 C 281.015625 338.351562 282.085938 338.621094 283.148438 338.945312 C 284.207031 339.265625 285.25 339.636719 286.273438 340.0625 C 287.296875 340.484375 288.296875 340.960938 289.277344 341.480469 C 290.253906 342.003906 291.203125 342.574219 292.125 343.1875 C 293.046875 343.804688 293.933594 344.464844 294.789062 345.167969 C 295.648438 345.871094 296.46875 346.613281 297.25 347.394531 C 298.035156 348.179688 298.777344 349 299.480469 349.855469 C 300.183594 350.714844 300.84375 351.601562 301.457031 352.523438 C 302.074219 353.445312 302.644531 354.394531 303.164062 355.371094 C 303.6875 356.347656 304.160156 357.347656 304.585938 358.371094 C 305.007812 359.398438 305.382812 360.4375 305.703125 361.5 C 306.023438 362.558594 306.292969 363.632812 306.511719 364.71875 C 306.726562 365.804688 306.890625 366.902344 306.996094 368.003906 C 307.105469 369.105469 307.160156 370.210938 307.160156 371.320312 Z M 307.160156 371.320312 " fill-opacity="1" fill-rule="nonzero"/><path fill="#ff9561" d="M 567.257812 371.320312 C 567.257812 372.429688 567.203125 373.535156 567.09375 374.636719 C 566.984375 375.738281 566.824219 376.835938 566.605469 377.921875 C 566.390625 379.007812 566.121094 380.082031 565.800781 381.140625 C 565.480469 382.203125 565.105469 383.242188 564.683594 384.269531 C 564.257812 385.292969 563.785156 386.292969 563.261719 387.269531 C 562.738281 388.246094 562.171875 389.195312 561.554688 390.117188 C 560.941406 391.039062 560.28125 391.925781 559.578125 392.785156 C 558.875 393.640625 558.132812 394.460938 557.347656 395.246094 C 556.5625 396.027344 555.742188 396.769531 554.886719 397.472656 C 554.03125 398.175781 553.140625 398.835938 552.21875 399.453125 C 551.300781 400.066406 550.351562 400.636719 549.371094 401.160156 C 548.394531 401.679688 547.394531 402.15625 546.371094 402.578125 C 545.347656 403.003906 544.304688 403.375 543.246094 403.695312 C 542.183594 404.019531 541.109375 404.289062 540.023438 404.503906 C 538.9375 404.71875 537.84375 404.882812 536.738281 404.992188 C 535.636719 405.097656 534.53125 405.152344 533.421875 405.152344 C 532.316406 405.152344 531.210938 405.097656 530.109375 404.992188 C 529.003906 404.882812 527.910156 404.71875 526.824219 404.503906 C 525.738281 404.289062 524.664062 404.019531 523.601562 403.695312 C 522.542969 403.375 521.5 403.003906 520.476562 402.578125 C 519.453125 402.15625 518.453125 401.679688 517.476562 401.160156 C 516.496094 400.636719 515.546875 400.066406 514.625 399.453125 C 513.707031 398.835938 512.816406 398.175781 511.960938 397.472656 C 511.101562 396.769531 510.285156 396.027344 509.5 395.246094 C 508.714844 394.460938 507.972656 393.640625 507.269531 392.785156 C 506.566406 391.925781 505.90625 391.039062 505.292969 390.117188 C 504.675781 389.195312 504.109375 388.246094 503.585938 387.269531 C 503.0625 386.292969 502.589844 385.292969 502.164062 384.269531 C 501.742188 383.242188 501.367188 382.203125 501.046875 381.140625 C 500.726562 380.082031 500.457031 379.007812 500.242188 377.921875 C 500.023438 376.835938 499.863281 375.738281 499.753906 374.636719 C 499.644531 373.535156 499.589844 372.429688 499.589844 371.320312 C 499.589844 370.210938 499.644531 369.105469 499.753906 368.003906 C 499.863281 366.902344 500.023438 365.804688 500.242188 364.71875 C 500.457031 363.632812 500.726562 362.558594 501.046875 361.5 C 501.367188 360.4375 501.742188 359.398438 502.164062 358.371094 C 502.589844 357.347656 503.0625 356.347656 503.585938 355.371094 C 504.109375 354.394531 504.675781 353.445312 505.292969 352.523438 C 505.90625 351.601562 506.566406 350.714844 507.269531 349.855469 C 507.972656 349 508.714844 348.179688 509.5 347.394531 C 510.285156 346.613281 511.101562 345.871094 511.960938 345.167969 C 512.816406 344.464844 513.707031 343.804688 514.625 343.1875 C 515.546875 342.574219 516.496094 342.003906 517.476562 341.480469 C 518.453125 340.960938 519.453125 340.484375 520.476562 340.0625 C 521.5 339.636719 522.542969 339.265625 523.601562 338.945312 C 524.664062 338.621094 525.738281 338.351562 526.824219 338.136719 C 527.910156 337.921875 529.003906 337.757812 530.109375 337.648438 C 531.210938 337.542969 532.316406 337.488281 533.421875 337.488281 C 534.53125 337.488281 535.636719 337.542969 536.738281 337.648438 C 537.84375 337.757812 538.9375 337.921875 540.023438 338.136719 C 541.109375 338.351562 542.183594 338.621094 543.246094 338.945312 C 544.304688 339.265625 545.347656 339.636719 546.371094 340.0625 C 547.394531 340.484375 548.394531 340.960938 549.371094 341.480469 C 550.351562 342.003906 551.300781 342.574219 552.21875 343.1875 C 553.140625 343.804688 554.03125 344.464844 554.886719 345.167969 C 555.742188 345.871094 556.5625 346.613281 557.347656 347.394531 C 558.132812 348.179688 558.875 349 559.578125 349.855469 C 560.28125 350.714844 560.941406 351.601562 561.554688 352.523438 C 562.171875 353.445312 562.738281 354.394531 563.261719 355.371094 C 563.785156 356.347656 564.257812 357.347656 564.683594 358.371094 C 565.105469 359.398438 565.480469 360.4375 565.800781 361.5 C 566.121094 362.558594 566.390625 363.632812 566.605469 364.71875 C 566.824219 365.804688 566.984375 366.902344 567.09375 368.003906 C 567.203125 369.105469 567.257812 370.210938 567.257812 371.320312 Z M 567.257812 371.320312 " fill-opacity="1" fill-rule="nonzero"/><path fill="#ffc9ac" d="M 405.097656 191.582031 C 407.253906 191.582031 409.410156 191.636719 411.5625 191.742188 C 413.71875 191.847656 415.867188 192.003906 418.011719 192.214844 C 420.160156 192.429688 422.300781 192.691406 424.433594 193.007812 C 426.566406 193.324219 428.691406 193.695312 430.804688 194.113281 C 432.921875 194.535156 435.023438 195.007812 437.117188 195.53125 C 439.207031 196.054688 441.285156 196.628906 443.347656 197.257812 C 445.414062 197.882812 447.460938 198.558594 449.488281 199.285156 C 451.519531 200.011719 453.53125 200.789062 455.523438 201.613281 C 457.515625 202.4375 459.488281 203.3125 461.4375 204.234375 C 463.386719 205.15625 465.3125 206.125 467.214844 207.140625 C 469.117188 208.160156 470.992188 209.222656 472.839844 210.328125 C 474.691406 211.4375 476.511719 212.589844 478.304688 213.789062 C 480.097656 214.988281 481.863281 216.230469 483.59375 217.515625 C 485.324219 218.796875 487.023438 220.125 488.691406 221.492188 C 490.359375 222.859375 491.992188 224.269531 493.589844 225.71875 C 495.1875 227.164062 496.75 228.652344 498.273438 230.175781 C 499.796875 231.703125 501.285156 233.265625 502.734375 234.863281 C 504.183594 236.460938 505.589844 238.09375 506.957031 239.757812 C 508.324219 241.425781 509.652344 243.125 510.9375 244.859375 C 512.222656 246.589844 513.464844 248.351562 514.660156 250.144531 C 515.859375 251.9375 517.011719 253.761719 518.121094 255.609375 C 519.230469 257.460938 520.292969 259.335938 521.308594 261.238281 C 522.324219 263.140625 523.296875 265.066406 524.21875 267.015625 C 525.140625 268.964844 526.011719 270.933594 526.839844 272.925781 C 527.664062 274.921875 528.4375 276.929688 529.164062 278.960938 C 529.890625 280.992188 530.570312 283.039062 531.195312 285.101562 C 531.820312 287.167969 532.394531 289.246094 532.917969 291.335938 C 533.445312 293.429688 533.914062 295.53125 534.335938 297.648438 C 534.757812 299.761719 535.125 301.886719 535.441406 304.019531 C 535.757812 306.152344 536.023438 308.292969 536.234375 310.4375 C 536.445312 312.585938 536.605469 314.734375 536.710938 316.890625 C 536.816406 319.042969 536.867188 321.199219 536.867188 323.355469 L 536.867188 357.417969 C 536.867188 359.574219 536.816406 361.730469 536.710938 363.882812 C 536.605469 366.035156 536.445312 368.1875 536.234375 370.332031 C 536.023438 372.480469 535.757812 374.617188 535.441406 376.75 C 535.125 378.886719 534.757812 381.007812 534.335938 383.125 C 533.914062 385.238281 533.445312 387.34375 532.917969 389.433594 C 532.394531 391.527344 531.820312 393.605469 531.195312 395.667969 C 530.570312 397.730469 529.890625 399.777344 529.164062 401.808594 C 528.4375 403.839844 527.664062 405.851562 526.839844 407.84375 C 526.011719 409.835938 525.140625 411.808594 524.21875 413.757812 C 523.296875 415.707031 522.324219 417.632812 521.308594 419.535156 C 520.292969 421.4375 519.230469 423.3125 518.121094 425.160156 C 517.011719 427.011719 515.859375 428.832031 514.660156 430.625 C 513.464844 432.417969 512.222656 434.179688 510.9375 435.914062 C 509.652344 437.644531 508.324219 439.34375 506.957031 441.011719 C 505.589844 442.679688 504.183594 444.3125 502.734375 445.910156 C 501.285156 447.507812 499.796875 449.070312 498.273438 450.59375 C 496.75 452.117188 495.1875 453.605469 493.589844 455.054688 C 491.992188 456.503906 490.359375 457.910156 488.691406 459.277344 C 487.023438 460.648438 485.324219 461.972656 483.59375 463.257812 C 481.863281 464.542969 480.097656 465.785156 478.304688 466.980469 C 476.511719 468.179688 474.691406 469.332031 472.839844 470.441406 C 470.992188 471.550781 469.117188 472.613281 467.214844 473.628906 C 465.3125 474.648438 463.386719 475.617188 461.4375 476.539062 C 459.488281 477.460938 457.515625 478.332031 455.523438 479.160156 C 453.53125 479.984375 451.519531 480.761719 449.488281 481.488281 C 447.460938 482.214844 445.414062 482.890625 443.347656 483.515625 C 441.285156 484.140625 439.207031 484.714844 437.117188 485.242188 C 435.023438 485.765625 432.921875 486.238281 430.804688 486.65625 C 428.691406 487.078125 426.566406 487.445312 424.433594 487.761719 C 422.300781 488.078125 420.160156 488.34375 418.011719 488.554688 C 415.867188 488.765625 413.71875 488.925781 411.5625 489.03125 C 409.410156 489.136719 407.253906 489.191406 405.097656 489.191406 C 402.941406 489.191406 400.785156 489.136719 398.632812 489.03125 C 396.476562 488.925781 394.328125 488.765625 392.183594 488.554688 C 390.035156 488.34375 387.894531 488.078125 385.761719 487.761719 C 383.628906 487.445312 381.503906 487.078125 379.390625 486.65625 C 377.277344 486.238281 375.171875 485.765625 373.078125 485.242188 C 370.988281 484.714844 368.910156 484.140625 366.847656 483.515625 C 364.78125 482.890625 362.734375 482.214844 360.707031 481.488281 C 358.675781 480.761719 356.664062 479.984375 354.671875 479.160156 C 352.679688 478.332031 350.707031 477.460938 348.757812 476.539062 C 346.808594 475.617188 344.882812 474.648438 342.980469 473.628906 C 341.078125 472.613281 339.203125 471.550781 337.355469 470.441406 C 335.503906 469.332031 333.683594 468.179688 331.890625 466.980469 C 330.097656 465.785156 328.335938 464.542969 326.601562 463.257812 C 324.871094 461.972656 323.171875 460.648438 321.503906 459.277344 C 319.835938 457.910156 318.203125 456.503906 316.605469 455.054688 C 315.007812 453.605469 313.445312 452.117188 311.921875 450.59375 C 310.398438 449.070312 308.910156 447.507812 307.460938 445.910156 C 306.015625 444.3125 304.605469 442.679688 303.238281 441.011719 C 301.871094 439.34375 300.542969 437.644531 299.257812 435.914062 C 297.972656 434.179688 296.730469 432.417969 295.535156 430.625 C 294.335938 428.832031 293.183594 427.011719 292.074219 425.160156 C 290.964844 423.3125 289.902344 421.4375 288.886719 419.535156 C 287.871094 417.632812 286.898438 415.707031 285.976562 413.757812 C 285.054688 411.808594 284.183594 409.835938 283.355469 407.84375 C 282.53125 405.851562 281.757812 403.839844 281.03125 401.808594 C 280.304688 399.777344 279.625 397.730469 279 395.667969 C 278.375 393.605469 277.800781 391.527344 277.277344 389.433594 C 276.75 387.34375 276.28125 385.238281 275.859375 383.125 C 275.4375 381.007812 275.070312 378.886719 274.753906 376.75 C 274.4375 374.617188 274.171875 372.480469 273.960938 370.332031 C 273.75 368.1875 273.589844 366.035156 273.484375 363.882812 C 273.378906 361.730469 273.328125 359.574219 273.328125 357.417969 L 273.328125 323.355469 C 273.328125 321.199219 273.378906 319.042969 273.484375 316.890625 C 273.589844 314.734375 273.75 312.585938 273.960938 310.4375 C 274.171875 308.292969 274.4375 306.152344 274.753906 304.019531 C 275.070312 301.886719 275.4375 299.761719 275.859375 297.648438 C 276.28125 295.53125 276.75 293.429688 277.277344 291.335938 C 277.800781 289.246094 278.375 287.167969 279 285.101562 C 279.625 283.039062 280.304688 280.992188 281.03125 278.960938 C 281.757812 276.929688 282.53125 274.921875 283.355469 272.925781 C 284.183594 270.933594 285.054688 268.964844 285.976562 267.015625 C 286.898438 265.066406 287.871094 263.140625 288.886719 261.238281 C 289.902344 259.335938 290.964844 257.460938 292.074219 255.609375 C 293.183594 253.761719 294.335938 251.9375 295.535156 250.144531 C 296.730469 248.351562 297.972656 246.589844 299.257812 244.859375 C 300.542969 243.125 301.871094 241.425781 303.238281 239.757812 C 304.605469 238.09375 306.015625 236.460938 307.460938 234.863281 C 308.910156 233.265625 310.398438 231.703125 311.921875 230.175781 C 313.445312 228.652344 315.007812 227.164062 316.605469 225.71875 C 318.203125 224.269531 319.835938 222.859375 321.503906 221.492188 C 323.171875 220.125 324.871094 218.796875 326.601562 217.515625 C 328.335938 216.230469 330.097656 214.988281 331.890625 213.789062 C 333.683594 212.589844 335.503906 211.4375 337.355469 210.328125 C 339.203125 209.222656 341.078125 208.160156 342.980469 207.140625 C 344.882812 206.125 346.808594 205.15625 348.757812 204.234375 C 350.707031 203.3125 352.679688 202.4375 354.671875 201.613281 C 356.664062 200.789062 358.675781 200.011719 360.707031 199.285156 C 362.734375 198.558594 364.78125 197.882812 366.847656 197.257812 C 368.910156 196.628906 370.988281 196.054688 373.078125 195.53125 C 375.171875 195.007812 377.277344 194.535156 379.390625 194.113281 C 381.503906 193.695312 383.628906 193.324219 385.761719 193.007812 C 387.894531 192.691406 390.035156 192.429688 392.183594 192.214844 C 394.328125 192.003906 396.476562 191.847656 398.632812 191.742188 C 400.785156 191.636719 402.941406 191.582031 405.097656 191.582031 Z M 405.097656 191.582031 " fill-opacity="1" fill-rule="nonzero"/><path fill="#002c5c" d="M 273.328125 337.488281 C 450.308594 339.289062 499.589844 239.058594 499.589844 239.058594 C 499.589844 239.058594 507.953125 319.257812 536.867188 340.378906 C 551.992188 256.25 507.582031 179.648438 392.332031 173.921875 C 277.082031 168.195312 245.957031 299.894531 273.328125 337.488281 Z M 273.328125 337.488281 " fill-opacity="1" fill-rule="nonzero"/><g fill="#f5f8fa" fill-opacity="1"><g transform="translate(208.562646, 712.623302)"><g><path d="M 33.65625 -4.703125 C 32.726562 -3.054688 31.507812 -1.773438 30 -0.859375 C 28.488281 0.046875 26.75 0.46875 24.78125 0.40625 C 22.8125 0.351562 20.726562 -0.289062 18.53125 -1.53125 L 14.828125 -3.640625 L 9.65625 5.46875 L 2.140625 1.21875 L 17.4375 -25.765625 L 28.65625 -19.40625 C 30.820312 -18.175781 32.445312 -16.75 33.53125 -15.125 C 34.613281 -13.5 35.15625 -11.789062 35.15625 -10 C 35.15625 -8.21875 34.65625 -6.453125 33.65625 -4.703125 Z M 21.1875 -7.9375 C 23.3125 -6.726562 24.921875 -7.09375 26.015625 -9.03125 C 27.128906 -10.988281 26.625 -12.570312 24.5 -13.78125 L 21.53125 -15.46875 L 18.21875 -9.625 Z M 21.1875 -7.9375 "/></g></g></g><g fill="#f5f8fa" fill-opacity="1"><g transform="translate(233.870292, 726.80837)"><g><path d="M 12.84375 -1.15625 L 21.53125 3 L 18.6875 8.953125 L 2.21875 1.0625 L 15.625 -26.90625 L 23.40625 -23.171875 Z M 12.84375 -1.15625 "/></g></g></g><g fill="#f5f8fa" fill-opacity="1"><g transform="translate(254.316914, 736.800667)"><g><path d="M 22.421875 3.28125 L 12.171875 -0.703125 L 8.78125 3.40625 L 0.328125 0.125 L 22.078125 -24.6875 L 31.359375 -21.09375 L 30.640625 11.890625 L 22.15625 8.59375 Z M 22.8125 -3.640625 L 23.3125 -14.21875 L 16.59375 -6.046875 Z M 22.8125 -3.640625 "/></g></g></g><g fill="#f5f8fa" fill-opacity="1"><g transform="translate(286.514134, 749.092729)"><g><path d="M 33.53125 -22.4375 L 31.59375 -15.859375 L 23.671875 -18.203125 L 16.84375 4.96875 L 8.578125 2.53125 L 15.40625 -20.640625 L 7.546875 -22.953125 L 9.484375 -29.53125 Z M 33.53125 -22.4375 "/></g></g></g><g fill="#f5f8fa" fill-opacity="1"><g transform="translate(313.185167, 757.047663)"><g><path d="M 22.65625 -0.5 L 11.875 -2.71875 L 9.234375 1.90625 L 0.359375 0.078125 L 17.6875 -28.015625 L 27.4375 -26.015625 L 32.203125 6.640625 L 23.28125 4.796875 Z M 21.890625 -7.390625 L 20.625 -17.890625 L 15.359375 -8.734375 Z M 21.890625 -7.390625 "/></g></g></g><g fill="#f5f8fa" fill-opacity="1"><g transform="translate(346.942151, 763.782055)"><g><path d="M 27.125 -27.90625 L 26.28125 -21.09375 L 13.96875 -22.609375 L 13.296875 -17.203125 L 22.359375 -16.09375 L 21.5625 -9.578125 L 12.5 -10.6875 L 11.015625 1.359375 L 2.453125 0.296875 L 6.25 -30.484375 Z M 27.125 -27.90625 "/></g></g></g><g fill="#f5f8fa" fill-opacity="1"><g transform="translate(372.661641, 767.103646)"><g><path d="M 17.3125 1 C 14.40625 0.882812 11.765625 0.0976562 9.390625 -1.359375 C 7.015625 -2.828125 5.160156 -4.796875 3.828125 -7.265625 C 2.503906 -9.734375 1.90625 -12.492188 2.03125 -15.546875 C 2.144531 -18.597656 2.960938 -21.304688 4.484375 -23.671875 C 6.003906 -26.035156 8.003906 -27.835938 10.484375 -29.078125 C 12.972656 -30.328125 15.671875 -30.894531 18.578125 -30.78125 C 21.503906 -30.664062 24.148438 -29.882812 26.515625 -28.4375 C 28.890625 -27 30.726562 -25.046875 32.03125 -22.578125 C 33.332031 -20.109375 33.925781 -17.347656 33.8125 -14.296875 C 33.6875 -11.242188 32.875 -8.535156 31.375 -6.171875 C 29.882812 -3.804688 27.890625 -1.988281 25.390625 -0.71875 C 22.898438 0.539062 20.207031 1.113281 17.3125 1 Z M 17.640625 -7.015625 C 19.835938 -6.929688 21.601562 -7.578125 22.9375 -8.953125 C 24.269531 -10.335938 24.984375 -12.234375 25.078125 -14.640625 C 25.171875 -17.097656 24.609375 -19.0625 23.390625 -20.53125 C 22.171875 -22.007812 20.460938 -22.789062 18.265625 -22.875 C 16.023438 -22.957031 14.242188 -22.3125 12.921875 -20.9375 C 11.609375 -19.570312 10.90625 -17.660156 10.8125 -15.203125 C 10.707031 -12.765625 11.257812 -10.8125 12.46875 -9.34375 C 13.675781 -7.875 15.398438 -7.097656 17.640625 -7.015625 Z M 17.640625 -7.015625 "/></g></g></g><g fill="#f5f8fa" fill-opacity="1"><g transform="translate(408.596299, 768.349597)"><g><path d="M 18.15625 -0.890625 L 11.4375 -12.015625 L 10.515625 -11.96875 L 11.078125 -0.546875 L 2.46875 -0.125 L 0.9375 -31.109375 L 14.515625 -31.78125 C 16.992188 -31.894531 19.117188 -31.5625 20.890625 -30.78125 C 22.671875 -30.007812 24.035156 -28.890625 24.984375 -27.421875 C 25.941406 -25.953125 26.46875 -24.28125 26.5625 -22.40625 C 26.664062 -20.300781 26.175781 -18.421875 25.09375 -16.765625 C 24.019531 -15.109375 22.382812 -13.882812 20.1875 -13.09375 L 27.78125 -1.375 Z M 10.21875 -17.875 L 14.484375 -18.078125 C 15.648438 -18.140625 16.515625 -18.460938 17.078125 -19.046875 C 17.640625 -19.628906 17.894531 -20.441406 17.84375 -21.484375 C 17.789062 -22.484375 17.453125 -23.253906 16.828125 -23.796875 C 16.203125 -24.335938 15.316406 -24.578125 14.171875 -24.515625 L 9.90625 -24.3125 Z M 10.21875 -17.875 "/></g></g></g><g fill="#f5f8fa" fill-opacity="1"><g transform="translate(439.144396, 767.068141)"><g><path d="M 33.703125 -36.359375 L 38.25 -5.671875 L 29.71875 -4.40625 L 27.203125 -21.328125 L 23.9375 -3.546875 L 16.796875 -2.484375 L 8.4375 -18.6875 L 10.96875 -1.625 L 2.4375 -0.359375 L -2.109375 -31.046875 L 8.203125 -32.578125 L 18.875 -13.78125 L 23.4375 -34.84375 Z M 33.703125 -36.359375 "/></g></g></g><g fill="#f5f8fa" fill-opacity="1"><g transform="translate(481.334245, 760.524288)"><g><path d="M 20.15625 -10.390625 L 9.5 -7.65625 L 9.125 -2.34375 L 0.34375 -0.09375 L 3.59375 -32.9375 L 13.234375 -35.40625 L 31.84375 -8.171875 L 23.015625 -5.90625 Z M 16.421875 -16.25 L 10.6875 -25.125 L 9.96875 -14.59375 Z M 16.421875 -16.25 "/></g></g></g><g fill="#f5f8fa" fill-opacity="1"><g transform="translate(514.242802, 751.690443)"><g/></g></g><g fill="#f5f8fa" fill-opacity="1"><g transform="translate(523.007851, 749.10533)"><g><path d="M 13.328125 -38.09375 L 15.71875 -31.671875 L 7.984375 -28.78125 L 16.453125 -6.15625 L 8.375 -3.125 L -0.09375 -25.75 L -7.765625 -22.890625 L -10.15625 -29.3125 Z M 13.328125 -38.09375 "/></g></g></g><g fill="#f5f8fa" fill-opacity="1"><g transform="translate(549.106875, 739.437453)"><g><path d="M 17.828125 -14.015625 L 7.875 -9.3125 L 8.515625 -4.03125 L 0.328125 -0.15625 L -2.703125 -33.03125 L 6.28125 -37.28125 L 29.71875 -14.046875 L 21.484375 -10.15625 Z M 13.046875 -19.0625 L 5.734375 -26.703125 L 7.03125 -16.21875 Z M 13.046875 -19.0625 "/></g></g></g><g fill="#f5f8fa" fill-opacity="1"><g transform="translate(580.120772, 724.532681)"><g><path d="M -2.375 -26.4375 L 0.140625 -22.046875 L 8.71875 -26.96875 L 11.984375 -21.296875 L 3.40625 -16.375 L 6.1875 -11.515625 L 15.90625 -17.09375 L 19.34375 -11.109375 L 2.140625 -1.234375 L -13.3125 -28.125 L 3.890625 -38 L 7.34375 -32.015625 Z M -2.375 -26.4375 "/></g></g></g></svg>